<?xml version="1.0" encoding="UTF-8"?>
<svg width="512" height="512" viewBox="0 0 512 512" xmlns="http://www.w3.org/2000/svg" role="img" aria-label="Circuit Flower - Digital Bloom">
  <defs>
    <!-- 背景渐变 - 橙紫色 -->
    <radialGradient id="backgroundGrad" cx="50%" cy="50%" r="70%">
      <stop offset="0%" stop-color="#FFD700"/>
      <stop offset="30%" stop-color="#FF8C42"/>
      <stop offset="70%" stop-color="#D65DB1"/>
      <stop offset="100%" stop-color="#7B2CBF"/>
    </radialGradient>
    
    <!-- 花瓣渐变 - 温暖的橙黄色 -->
    <linearGradient id="petalGrad" x1="0%" y1="0%" x2="100%" y2="100%">
      <stop offset="0%" stop-color="#FFF3CD" stop-opacity="0.9"/>
      <stop offset="50%" stop-color="#FFE066" stop-opacity="0.8"/>
      <stop offset="100%" stop-color="#FF8C42" stop-opacity="0.7"/>
    </linearGradient>
    
    <!-- 花心渐变 - 金色光芒 -->
    <radialGradient id="centerGrad" cx="50%" cy="50%" r="50%">
      <stop offset="0%" stop-color="#FFFFFF"/>
      <stop offset="20%" stop-color="#FFF700"/>
      <stop offset="60%" stop-color="#FFD700"/>
      <stop offset="100%" stop-color="#FF8C00"/>
    </radialGradient>
    
    <!-- 电路线条渐变 -->
    <linearGradient id="circuitGrad" x1="0%" y1="0%" x2="100%" y2="100%">
      <stop offset="0%" stop-color="#FFF700" stop-opacity="0.9"/>
      <stop offset="100%" stop-color="#FFD700" stop-opacity="0.7"/>
    </linearGradient>
    
    <!-- 光晕效果 -->
    <filter id="glow">
      <feGaussianBlur stdDeviation="3" result="coloredBlur"/>
      <feMerge> 
        <feMergeNode in="coloredBlur"/>
        <feMergeNode in="SourceGraphic"/>
      </feMerge>
    </filter>
    
    <!-- 外层光晕 -->
    <filter id="outerGlow">
      <feGaussianBlur stdDeviation="8" result="coloredBlur"/>
      <feMerge> 
        <feMergeNode in="coloredBlur"/>
        <feMergeNode in="SourceGraphic"/>
      </feMerge>
    </filter>
    
    <style>
      .circuit-line {
        stroke: url(#circuitGrad);
        stroke-width: 2;
        stroke-linecap: round;
        stroke-linejoin: round;
        fill: none;
      }
      .circuit-node {
        fill: #FFF700;
        filter: url(#glow);
      }
    </style>
  </defs>

  <!-- 背景 -->
  <rect width="512" height="512" fill="url(#backgroundGrad)"/>
  
  <!-- 主花朵容器 -->
  <g transform="translate(256,256)">
    
    <!-- 外层花瓣 (8片) -->
    <g fill="url(#petalGrad)" stroke="url(#circuitGrad)" stroke-width="1" opacity="0.9">
      <!-- 顶部花瓣 -->
      <path d="M0,-180 C-30,-150 -40,-120 -35,-90 C-28,-50 -10,-20 0,-10 C10,-20 28,-50 35,-90 C40,-120 30,-150 0,-180Z" filter="url(#outerGlow)"/>
      
      <!-- 右上花瓣 -->
      <path d="M127,-127 C110,-100 90,-80 70,-65 C40,-45 15,-25 10,-10 C15,0 40,10 70,5 C90,2 110,-18 127,-127Z" transform="rotate(45)" filter="url(#outerGlow)"/>
      
      <!-- 右侧花瓣 -->
      <path d="M180,0 C150,30 120,40 90,35 C50,28 20,10 10,0 C20,-10 50,-28 90,-35 C120,-40 150,-30 180,0Z" filter="url(#outerGlow)"/>
      
      <!-- 右下花瓣 -->
      <path d="M127,127 C100,110 80,90 65,70 C45,40 25,15 10,10 C0,15 -10,40 -5,70 C-2,90 18,110 127,127Z" transform="rotate(135)" filter="url(#outerGlow)"/>
      
      <!-- 底部花瓣 -->
      <path d="M0,180 C30,150 40,120 35,90 C28,50 10,20 0,10 C-10,20 -28,50 -35,90 C-40,120 -30,150 0,180Z" filter="url(#outerGlow)"/>
      
      <!-- 左下花瓣 -->
      <path d="M-127,127 C-110,100 -90,80 -70,65 C-40,45 -15,25 -10,10 C-15,0 -40,-10 -70,-5 C-90,-2 -110,18 -127,127Z" transform="rotate(225)" filter="url(#outerGlow)"/>
      
      <!-- 左侧花瓣 -->
      <path d="M-180,0 C-150,-30 -120,-40 -90,-35 C-50,-28 -20,-10 -10,0 C-20,10 -50,28 -90,35 C-120,40 -150,30 -180,0Z" filter="url(#outerGlow)"/>
      
      <!-- 左上花瓣 -->
      <path d="M-127,-127 C-100,-110 -80,-90 -65,-70 C-45,-40 -25,-15 -10,-10 C0,-15 10,-40 5,-70 C2,-90 -18,-110 -127,-127Z" transform="rotate(315)" filter="url(#outerGlow)"/>
    </g>
    
    <!-- 花茎 -->
    <g transform="translate(0,60)">
      <path d="M0,0 Q5,40 0,80 Q-3,120 2,160" class="circuit-line" stroke-width="4"/>
      <!-- 叶子 -->
      <path d="M-2,80 Q-25,75 -35,90 Q-30,105 -5,100" fill="url(#petalGrad)" opacity="0.6"/>
      <path d="M2,120 Q25,115 35,130 Q30,145 5,140" fill="url(#petalGrad)" opacity="0.6"/>
    </g>
    
    <!-- 电路纹理从花心延伸到花瓣 -->
    <g class="circuit-line">
      <!-- 主要线路 - 8个方向 -->
      <path d="M0,-50 L0,-120"/>
      <path d="M35,-35 L85,-85"/>
      <path d="M50,0 L120,0"/>
      <path d="M35,35 L85,85"/>
      <path d="M0,50 L0,120"/>
      <path d="M-35,35 L-85,85"/>
      <path d="M-50,0 L-120,0"/>
      <path d="M-35,-35 L-85,-85"/>
      
      <!-- 次要分支线路 -->
      <path d="M0,-80 L15,-95 L15,-105"/>
      <path d="M0,-80 L-15,-95 L-15,-105"/>
      <path d="M60,-60 L70,-45 L80,-50"/>
      <path d="M60,-60 L75,-75 L85,-70"/>
      <path d="M80,0 L95,10 L105,5"/>
      <path d="M80,0 L95,-10 L105,-5"/>
      <path d="M60,60 L75,75 L85,70"/>
      <path d="M60,60 L70,45 L80,50"/>
      
      <!-- 对称的另一半 -->
      <path d="M0,80 L15,95 L15,105"/>
      <path d="M0,80 L-15,95 L-15,105"/>
      <path d="M-60,60 L-70,45 L-80,50"/>
      <path d="M-60,60 L-75,75 L-85,70"/>
      <path d="M-80,0 L-95,10 L-105,5"/>
      <path d="M-80,0 L-95,-10 L-105,-5"/>
      <path d="M-60,-60 L-75,-75 L-85,-70"/>
      <path d="M-60,-60 L-70,-45 L-80,-50"/>
    </g>
    
    <!-- 电路节点 -->
    <g class="circuit-node">
      <circle cx="0" cy="-80" r="3"/>
      <circle cx="57" cy="-57" r="3"/>
      <circle cx="80" cy="0" r="3"/>
      <circle cx="57" cy="57" r="3"/>
      <circle cx="0" cy="80" r="3"/>
      <circle cx="-57" cy="57" r="3"/>
      <circle cx="-80" cy="0" r="3"/>
      <circle cx="-57" cy="-57" r="3"/>
      
      <!-- 外围节点 -->
      <circle cx="0" cy="-120" r="2"/>
      <circle cx="85" cy="-85" r="2"/>
      <circle cx="120" cy="0" r="2"/>
      <circle cx="85" cy="85" r="2"/>
      <circle cx="0" cy="120" r="2"/>
      <circle cx="-85" cy="85" r="2"/>
      <circle cx="-120" cy="0" r="2"/>
      <circle cx="-85" cy="-85" r="2"/>
    </g>
    
    <!-- 花心 - 发光的中央核心 -->
    <circle r="45" fill="url(#centerGrad)" filter="url(#outerGlow)"/>
    
    <!-- 花心内部电路图案 -->
    <g class="circuit-line" stroke-width="1">
      <circle r="25" fill="none"/>
      <circle r="15" fill="none"/>
      <!-- 内部交叉线 -->
      <path d="M-20,-20 L20,20"/>
      <path d="M20,-20 L-20,20"/>
      <path d="M0,-25 L0,25"/>
      <path d="M-25,0 L25,0"/>
    </g>
    
    <!-- 中心光点 -->
    <circle r="8" fill="#FFFFFF" filter="url(#glow)"/>
    <circle r="3" fill="#FFF700"/>
  </g>
</svg>
