<?xml version="1.0" encoding="UTF-8"?>
<svg width="32" height="32" viewBox="0 0 32 32" xmlns="http://www.w3.org/2000/svg">
  <defs>
    <radialGradient id="gold" cx="50%" cy="50%" r="65%">
      <stop offset="0%" stop-color="#FBBF24"/>
      <stop offset="40%" stop-color="#F59E0B"/>
      <stop offset="100%" stop-color="#D97706"/>
    </radialGradient>
    <linearGradient id="petal" x1="0%" y1="0%" x2="100%" y2="100%">
      <stop offset="0%" stop-color="#DDD6FE"/>
      <stop offset="50%" stop-color="#C4B5FD"/>
      <stop offset="100%" stop-color="#8B5CF6"/>
    </linearGradient>
  </defs>
  
  <!-- Transparent background -->
  <!-- <rect width="32" height="32" rx="4" fill="#ffffff"/> -->
  
  <!-- Larger, clearer petals for favicon -->
  <g transform="translate(16,16) scale(0.12)">
    <g fill="url(#petal)">
      <path d="M0,-120 C-25,-103 -36,-70 -30,-43 C-23,-12 0,3 0,3 C0,3 23,-12 30,-43 C36,-70 25,-103 0,-120Z"/>
      <path d="M85,-85 C61,-80 35,-59 27,-33 C18,-5 36,12 36,12 C36,12 59,-3 71,-28 C83,-50 87,-75 85,-85Z" transform="rotate(45)"/>
      <path d="M120,0 C103,25 70,36 43,30 C12,23 -3,0 -3,0 C-3,0 12,-23 43,-30 C70,-36 103,-25 120,0Z" transform="rotate(90)"/>
      <path d="M85,85 C80,61 59,35 33,27 C5,18 -12,36 -12,36 C-12,36 3,59 28,71 C50,83 75,87 85,85Z" transform="rotate(135)"/>
      <path d="M0,120 C25,103 36,70 30,43 C23,12 0,-3 0,-3 C0,-3 -23,12 -30,43 C-36,70 -25,103 0,120Z" transform="rotate(180)"/>
      <path d="M-85,85 C-61,80 -35,59 -27,33 C-18,5 -36,-12 -36,-12 C-36,-12 -59,3 -71,28 C-83,50 -87,75 -85,85Z" transform="rotate(225)"/>
      <path d="M-120,0 C-103,-25 -70,-36 -43,-30 C-12,-23 3,0 3,0 C3,0 -12,23 -43,30 C-70,36 -103,25 -120,0Z" transform="rotate(270)"/>
      <path d="M-85,-85 C-80,-61 -59,-35 -33,-27 C-5,-18 12,-36 12,-36 C12,-36 -3,-59 -28,-71 C-50,-83 -75,-87 -85,-85Z" transform="rotate(315)"/>
    </g>
    
    <!-- Larger, more visible core -->
    <circle r="50" fill="url(#gold)"/>
  </g>
</svg>