<?xml version="1.0" encoding="UTF-8"?>
<svg width="512" height="512" viewBox="0 0 512 512" xmlns="http://www.w3.org/2000/svg" role="img" aria-label="PRD For AI Logo - Floral Circuit">
  <defs>
    <radialGradient id="gold" cx="50%" cy="50%" r="60%">
      <stop offset="0%" stop-color="#FFD76A"/>
      <stop offset="60%" stop-color="#FFC13A"/>
      <stop offset="100%" stop-color="#F5A623"/>
    </radialGradient>
    <linearGradient id="petal" x1="0" y1="0" x2="1" y2="1">
      <stop offset="0" stop-color="#E9B6D4"/>
      <stop offset="1" stop-color="#B688CC"/>
    </linearGradient>
    <style>
      .c{stroke:#F9D36A;stroke-width:6;stroke-linecap:round;stroke-linejoin:round}
    </style>
  </defs>

  <!-- Background for nice inset look -->
  <rect width="512" height="512" rx="32" fill="#FDF3F8"/>

  <!-- Petals -->
  <g transform="translate(256,256)">
    <g fill="url(#petal)">
      <path d="M0,-188 C-40,-160 -58,-108 -48,-66 C-36,-16 0,6 0,6 C0,6 36,-16 48,-66 C58,-108 40,-160 0,-188Z"/>
      <path d="M133,-133 C96,-126 54,-92 42,-52 C28,-6 58,22 58,22 C58,22 96,-2 116,-44 C133,-79 142,-118 133,-133Z" transform="rotate(45)"/>
      <path d="M188,0 C160,40 108,58 66,48 C16,36 -6,0 -6,0 C-6,0 16,-36 66,-48 C108,-58 160,-40 188,0Z" transform="rotate(90)"/>
      <path d="M133,133 C126,96 92,54 52,42 C6,28 -22,58 -22,58 C-22,58 2,96 44,116 C79,133 118,142 133,133Z" transform="rotate(135)"/>
      <path d="M0,188 C40,160 58,108 48,66 C36,16 0,-6 0,-6 C0,-6 -36,16 -48,66 C-58,108 -40,160 0,188Z" transform="rotate(180)"/>
      <path d="M-133,133 C-96,126 -54,92 -42,52 C-28,6 -58,-22 -58,-22 C-58,-22 -96,2 -116,44 C-133,79 -142,118 -133,133Z" transform="rotate(225)"/>
      <path d="M-188,0 C-160,-40 -108,-58 -66,-48 C-16,-36 6,0 6,0 C6,0 -16,36 -66,48 C-108,58 -160,40 -188,0Z" transform="rotate(270)"/>
      <path d="M-133,-133 C-126,-96 -92,-54 -52,-42 C-6,-28 22,-58 22,-58 C22,-58 -2,-96 -44,-116 C-79,-133 -118,-142 -133,-133Z" transform="rotate(315)"/>
    </g>

    <!-- Golden core -->
    <circle r="78" fill="url(#gold)"/>

    <!-- Circuit traces radiating from core into petals -->
    <g class="c">
      <path d="M0,-70 v-32"/>
      <circle cx="0" cy="-112" r="6" fill="#F9D36A"/>

      <path d="M50,-50 l22,-22"/>
      <circle cx="84" cy="-84" r="6" fill="#F9D36A"/>

      <path d="M70,0 h32"/>
      <circle cx="112" cy="0" r="6" fill="#F9D36A"/>

      <path d="M50,50 l22,22"/>
      <circle cx="84" cy="84" r="6" fill="#F9D36A"/>

      <path d="M0,70 v32"/>
      <circle cx="0" cy="112" r="6" fill="#F9D36A"/>

      <path d="M-50,50 l-22,22"/>
      <circle cx="-84" cy="84" r="6" fill="#F9D36A"/>

      <path d="M-70,0 h-32"/>
      <circle cx="-112" cy="0" r="6" fill="#F9D36A"/>

      <path d="M-50,-50 l-22,-22"/>
      <circle cx="-84" cy="-84" r="6" fill="#F9D36A"/>
    </g>
  </g>

  <!-- Subtle title -->
  <g transform="translate(256,464)">
    <text text-anchor="middle" font-family="'SF Pro Display', ui-sans-serif, system-ui" font-weight="700" font-size="36" fill="#7B5AAE">PRD For AI</text>
  </g>
</svg>


